<svg width="60" height="58" viewBox="0 0 60 58" fill="none" xmlns="http://www.w3.org/2000/svg">
<path opacity="0.21" fill-rule="evenodd" clip-rule="evenodd" d="M0 28.7103V34.4206C0 47.1231 10.2975 57.4206 23 57.4206H30H37C49.7025 57.4206 60 47.1231 60 34.4205V28.7103V23C60 10.2975 49.7025 0 37 0H30H23C10.2975 0 0 10.2975 0 23V28.7103Z" fill="#FEC53D"/>
<path fill-rule="evenodd" clip-rule="evenodd" d="M15 23.2713L27.9005 30.3992C28.0394 30.4759 28.1851 30.5314 28.3333 30.5666V44.3908L15.9201 37.3604C15.3498 37.0374 15 36.4503 15 35.8162V23.2713ZM45 23.0816V35.816C45 36.4501 44.6502 37.0372 44.0799 37.3602L31.6667 44.3906V30.4453C31.6969 30.4308 31.7269 30.4154 31.7566 30.399L45 23.0816Z" fill="#FEC53D"/>
<path opacity="0.499209" fill-rule="evenodd" clip-rule="evenodd" d="M15.4053 19.8115C15.5628 19.621 15.7617 19.4601 15.9936 19.3419L29.1186 12.6518C29.6696 12.3709 30.3305 12.3709 30.8815 12.6518L44.0065 19.3419C44.1852 19.433 44.3444 19.5495 44.4801 19.6853L30.0899 27.6363C29.9953 27.6886 29.9081 27.7484 29.8286 27.8145C29.7491 27.7484 29.6618 27.6886 29.5672 27.6363L15.4053 19.8115Z" fill="#FEC53D"/>
</svg>
