<svg width="60" height="58" viewBox="0 0 60 58" fill="none" xmlns="http://www.w3.org/2000/svg">
<path opacity="0.21" fill-rule="evenodd" clip-rule="evenodd" d="M0 28.7103V34.4206C0 47.1231 10.2975 57.4206 23 57.4206H30H37C49.7025 57.4206 60 47.1231 60 34.4205V28.7103V23C60 10.2975 49.7025 0 37 0H30H23C10.2975 0 0 10.2975 0 23V28.7103Z" fill="#8280FF"/>
<path opacity="0.587821" fill-rule="evenodd" clip-rule="evenodd" d="M20.6666 22.3302C20.6666 25.1491 23.0544 27.4343 26 27.4343C28.9455 27.4343 31.3333 25.1491 31.3333 22.3302C31.3333 19.5113 28.9455 17.2262 26 17.2262C23.0544 17.2262 20.6666 19.5113 20.6666 22.3302ZM34 27.4343C34 29.5484 35.7908 31.2623 38 31.2623C40.2091 31.2623 42 29.5484 42 27.4343C42 25.3201 40.2091 23.6062 38 23.6062C35.7908 23.6062 34 25.3201 34 27.4343Z" fill="#8280FF"/>
<path fill-rule="evenodd" clip-rule="evenodd" d="M25.9778 29.9863C19.6826 29.9863 14.5177 33.0826 14.0009 39.1726C13.9727 39.5043 14.6356 40.1944 14.97 40.1944H36.9956C37.9972 40.1944 38.0128 39.423 37.9972 39.1736C37.6065 32.9124 32.3616 29.9863 25.9778 29.9863ZM45.2746 40.1944L40.1333 40.1944C40.1333 37.3222 39.1417 34.6716 37.4683 32.5391C42.0103 32.5866 45.7189 34.7843 45.998 39.4288C46.0092 39.6159 45.998 40.1944 45.2746 40.1944Z" fill="#8280FF"/>
</svg>
