<svg width="60" height="58" viewBox="0 0 60 58" fill="none" xmlns="http://www.w3.org/2000/svg">
<path opacity="0.21" fill-rule="evenodd" clip-rule="evenodd" d="M0 28.7103V34.4206C0 47.1231 10.2975 57.4206 23 57.4206H30H37C49.7025 57.4206 60 47.1231 60 34.4205V28.7103V23C60 10.2975 49.7025 0 37 0H30H23C10.2975 0 0 10.2975 0 23V28.7103Z" fill="#4AD991"/>
<path d="M19.1111 39.131H42.4444C43.3036 39.131 44 39.7976 44 40.6197C44 41.4419 43.3036 42.1084 42.4444 42.1084H17.5556C16.6964 42.1084 16 41.4419 16 40.6197V16.8008C16 15.9787 16.6964 15.3121 17.5556 15.3121C18.4147 15.3121 19.1111 15.9787 19.1111 16.8008V39.131Z" fill="#4AD991"/>
<path opacity="0.5" d="M24.9126 32.7058C24.325 33.3056 23.3406 33.336 22.7138 32.7737C22.0871 32.2114 22.0553 31.2693 22.6429 30.6695L28.4762 24.7148C29.0445 24.1347 29.9888 24.0844 30.6208 24.6005L35.2248 28.3604L41.2235 21.0888C41.7558 20.4435 42.734 20.3333 43.4083 20.8428C44.0826 21.3522 44.1977 22.2884 43.6653 22.9337L36.6653 31.4192C36.1186 32.0819 35.1059 32.1773 34.4347 31.6291L29.7306 27.7875L24.9126 32.7058Z" fill="#4AD991"/>
</svg>
